# xmcd
#
# Track frame offsets:
#	150
#	11925
#	22275
#	34750
#	47175
#	60325
#	72775
#	86625
#	99750
#	111450
#	123150
#	136275
#	147525
#	158475
#	170925
#	184275
#
# Disc length: 2601 seconds
#
# Revision: 1
# Processed by: cddbd v1.5.2PL0 Copyright (c) Steve Scherf et al.
# Submitted via: audiograbber 1.83.01
#
DISCID=e50a2710
DTITLE=George Jones - White Lightning
DYEAR=1900
DGENRE=Old Country
TTITLE0=Milwaukee Here I Come
TTITLE1=Walk Through This World With Me
TTITLE2=Let's Get Together
TTITLE3=Acidentally On Purpose
TTITLE4=When the Grass Grows Over Me
TTITLE5=If My Heart Had Windows
TTITLE6=A Good Year For The Roses
TTITLE7=Things Have Gone To Pieces
TTITLE8=My Favourite Lies
TTITLE9=White Lightning
TTITLE10=Take Me
TTITLE11=I'll Share My World With You
TTITLE12=Tender Years
TTITLE13=She Still Thinks I Care
TTITLE14=She's Mine
TTITLE15=Say It's Not You
EXTD=
EXTT0=
EXTT1=
EXTT2=
EXTT3=
EXTT4=
EXTT5=
EXTT6=
EXTT7=
EXTT8=
EXTT9=
EXTT10=
EXTT11=
EXTT12=
EXTT13=
EXTT14=
EXTT15=
PLAYORDER=
